<?xml version="1.0" encoding="UTF-8"?>
<svg width="103px" height="71px" viewBox="0 0 103 71" version="1.1" xmlns="http://www.w3.org/2000/svg" xmlns:xlink="http://www.w3.org/1999/xlink">
    <!-- Generator: Sketch 41.2 (35397) - http://www.bohemiancoding.com/sketch -->
    <title>Group</title>
    <desc>Created with Sketch.</desc>
    <defs></defs>
    <g id="Page-1" stroke="none" stroke-width="1" fill="none" fill-rule="evenodd">
        <g id="cb-logo" transform="translate(-66.000000, 0.000000)">
            <g id="Group-13" transform="translate(66.000000, 0.000000)">
                <g id="Group">
                    <path d="M61.0845,5.8101 L61.1395,44.5431 C61.1395,44.5431 60.9775,48.1171 62.2225,51.5831 C62.2225,51.5831 60.3265,48.8211 60.1645,44.5431 L60.1645,5.8101 C60.1645,5.8101 60.2195,3.5901 62.7095,3.5901 C62.7095,3.5901 61.4645,3.8611 61.0845,5.8101 M80.2625,21.5881 C78.0305,21.5881 75.9195,21.8421 73.8085,22.2711 C73.6975,22.2941 73.4745,22.3401 73.4745,22.3401 C73.4745,22.3401 67.7695,26.3681 66.6645,27.2631 L74.3145,30.4951 C76.5135,29.9351 76.7905,29.8011 78.7975,29.8011 C88.0845,29.8011 94.2425,36.2531 94.2425,45.9301 C94.2425,55.5111 87.7905,62.2571 78.6005,62.2571 C70.3895,62.2571 63.5455,56.0001 63.5455,43.0951 L63.5455,5.8931 C63.6805,4.7781 64.8665,4.0711 65.8095,3.6861 L66.9865,3.6861 L66.9865,0.1391 L51.5095,0.1391 L51.5095,3.6861 L52.6815,3.6861 C53.6095,4.0651 54.7775,4.7571 54.9415,5.8431 L54.9415,44.6611 C54.9415,60.1061 64.8165,70.4691 78.6005,70.4691 C93.8515,70.4691 102.8435,58.7361 102.8435,44.8561 C102.8435,31.7541 92.2885,21.5881 80.2625,21.5881" id="Fill-1" fill="#FFFFFF"></path>
                    <path d="M46.925,45.0285 L40.791,50.7085 C39.525,54.7885 36.751,58.1315 32.978,60.1305 C30.708,61.3235 28.169,61.9605 25.531,61.9605 C21.246,61.9605 17.217,60.2915 14.186,57.2605 C11.156,54.2295 9.487,50.2005 9.487,45.9145 C9.487,41.6295 11.156,37.5995 14.186,34.5695 C17.216,31.5385 21.245,29.8695 25.531,29.8695 C29.736,29.8695 33.688,31.4845 36.698,34.4065 C37.245,35.2805 36.955,36.4975 36.605,37.3645 L35.793,38.1825 L38.31,40.6815 L48.962,29.9525 L46.445,27.4535 L45.639,28.2655 C44.804,28.6105 43.644,28.9025 42.774,28.4385 C38.15,23.8755 32.035,21.3615 25.531,21.3615 C18.972,21.3615 12.807,23.9145 8.169,28.5535 C3.532,33.1915 0.978,39.3565 0.978,45.9145 C0.978,52.4735 3.532,58.6395 8.17,63.2775 C12.807,67.9145 18.974,70.4685 25.531,70.4685 C32.089,70.4685 38.256,67.9145 42.893,63.2775 L42.902,63.2445 C45.655,60.4745 47.726,57.0685 48.917,53.2315 L46.925,45.0285 Z" id="Fill-3" fill="#FFFFFF"></path>
                    <path d="M39.1567,31.901 L39.1597,31.898 C39.1517,31.89 39.1427,31.883 39.1347,31.876 C39.1227,31.863 39.1157,31.856 39.1157,31.856 L39.1137,31.858 C35.4877,28.373 30.7257,26.453 25.6937,26.453 C15.6337,26.453 7.1977,34.256 6.3917,44.251 L6.3857,44.329 C6.1717,48.583 7.7617,51.403 7.7617,51.403 C7.0947,48.843 7.1397,46.335 7.2157,45.14 C7.2447,44.682 7.3477,43.688 7.3907,43.37 C8.5997,34.302 16.4237,27.353 25.6937,27.353 C30.5047,27.353 35.0587,29.193 38.5197,32.533 C39.5627,34.042 38.9287,35.08 38.9287,35.08 C40.4277,33.499 39.3777,32.151 39.1567,31.901" id="Fill-5" fill="#4D4D4C"></path>
                </g>
            </g>
        </g>
    </g>
</svg>