<?xml version="1.0" encoding="UTF-8"?>
<svg width="236px" height="157px" viewBox="0 0 236 157" version="1.1" xmlns="http://www.w3.org/2000/svg" xmlns:xlink="http://www.w3.org/1999/xlink">
    <!-- Generator: Sketch 41.2 (35397) - http://www.bohemiancoding.com/sketch -->
    <title>Group 3</title>
    <desc>Created with Sketch.</desc>
    <defs></defs>
    <g id="Page-3" stroke="none" stroke-width="1" fill="none" fill-rule="evenodd">
        <g id="cb-logo" transform="translate(-424.000000, -408.000000)" fill="#FFFFFF">
            <g id="Group-38" transform="translate(0.000000, 384.000000)">
                <g id="Group-2">
                    <g id="Group-3" transform="translate(422.000000, 24.000000)">
                        <path d="M115.904,0 C97.178,0 82,15.049 82,33.609 C82,49.488 93.112,62.786 108.047,66.301 L108.147,64.828 L109.164,52.629 L111.49,52.533 L111.914,32.045 L110.586,31.797 L109.429,23.436 C109.429,23.436 101.032,21.25 92.769,32.127 C92.769,32.127 91.624,33.961 90.742,33.061 C90.742,33.061 89.588,32.335 91.957,29.003 C91.957,29.003 94.703,23.765 99.942,18.153 C99.942,18.153 106.425,11.427 118.774,12.36 C118.774,12.36 122.463,20.718 129.484,14.122 L136.204,14.326 C136.204,14.326 138.368,20.112 135.9,26.597 L129.332,26.971 C129.332,26.971 126.715,22.518 120.907,26.607 L119.3,31.841 L118.397,32.082 L117.979,52.669 L120.111,52.783 L120.299,62.198 L120.687,66.878 C137.144,64.573 149.805,50.56 149.805,33.609 C149.805,15.049 134.627,0 115.904,0" id="Fill-36-Copy"></path>
                        <text id="COLEMAN-Copy" font-family="LucidaGrande, Lucida Grande" font-size="50.0568" font-weight="normal" letter-spacing="0.1">
                            <tspan x="0" y="114">COLEMAN</tspan>
                        </text>
                        <text id="BUILDERS-Copy" font-family="LucidaGrande, Lucida Grande" font-size="28" font-weight="normal" letter-spacing="0.2">
                            <tspan x="56" y="156">BUILDERS</tspan>
                        </text>
                        <path d="M131.547,16.5759342 L135.073,16.9249342 L135.173,15.7909342 L131.154,15.3729342 C123.109,21.4889342 118.96,14.0749342 118.96,14.0749342 C111.241,13.4349342 105.123,17.1049342 105.123,17.1049342 C99.309,20.4679342 98,24.2409342 98,24.2409342 C102.517,19.1989342 106.345,17.7359342 106.345,17.7359342 C112.351,14.7419342 118.283,15.1449342 118.283,15.1449342 C123.156,22.9989342 131.547,16.5759342 131.547,16.5759342" id="Fill-34-Copy"></path>
                    </g>
                </g>
            </g>
        </g>
    </g>
</svg>